Coordinates
version=1
nRows=18
nColumns=63
inDegrees=yes

Units are S.I. units (second, meters, Newtons, ...)
If the header above contains a line with 'inDegrees', this indicates whether rotational values are in degrees (yes) or radians (no).

endheader
time	pelvis_tilt	pelvis_list	pelvis_rotation	pelvis_tx	pelvis_ty	pelvis_tz	hip_flexion_r	hip_adduction_r	hip_rotation_r	knee_angle_r	knee_angle_r_beta	ankle_angle_r	subtalar_angle_r	mtp_angle_r	hip_flexion_l	hip_adduction_l	hip_rotation_l	knee_angle_l	knee_angle_l_beta	ankle_angle_l	subtalar_angle_l	mtp_angle_l	L5_S1_Flex_Ext	L5_S1_Lat_Bending	L5_S1_axial_rotation	L4_L5_Flex_Ext	L4_L5_Lat_Bending	L4_L5_axial_rotation	L3_L4_Flex_Ext	L3_L4_Lat_Bending	L3_L4_axial_rotation	L2_L3_Flex_Ext	L2_L3_Lat_Bending	L2_L3_axial_rotation	L1_L2_Flex_Ext	L1_L2_Lat_Bending	L1_L2_axial_rotation	L1_T12_Flex_Ext	L1_T12_Lat_Bending	L1_T12_axial_rotation	Abs_r3	Abs_r2	Abs_r1	Abs_t1	Abs_t2	neck_flexion	neck_bending	neck_rotation	arm_flex_r	arm_add_r	arm_rot_r	elbow_flex_r	pro_sup_r	wrist_flex_r	wrist_dev_r	arm_flex_l	arm_add_l	arm_rot_l	elbow_flex_l	pro_sup_l	wrist_flex_l	wrist_dev_l
0.000000	1.915055	-3.446720	91.408191	0.215462	0.814914	0.704027	2.876492	3.588876	0.024548	10.306252	0.179878	34.849874	-8.149594	0.000000	-0.913154	-2.681336	21.144980	0.838944	0.014642	32.506726	-8.232422	0.000000	0.180447	0.660416	-1.684935	0.335108	0.878353	-1.790244	0.296456	1.605734	-1.790244	0.206233	1.605734	-1.474318	0.167563	1.346719	-1.369010	0.103107	1.022984	-1.263701	1.288913	7.470753	-9.371105	0.000000	0.000000	27.880872	2.031234	3.126279	34.775591	-10.774691	111.103498	46.966730	104.260911	-17.566535	-12.953019	14.433820	-11.664014	56.364197	49.433627	87.891087	-20.845994	-10.037867
0.025641	2.255522	-3.297495	90.179383	0.216932	0.814535	0.700518	2.599781	3.953433	1.461441	10.618272	0.185324	35.326238	-8.000191	0.000000	-1.637336	-2.995085	20.138478	0.796866	0.013908	33.200578	-8.544799	0.000000	0.198884	0.699007	-1.317109	0.369348	0.929679	-1.399428	0.326747	1.699565	-1.399428	0.227305	1.699565	-1.152470	0.184684	1.425414	-1.070151	0.113643	1.082761	-0.987831	1.420612	7.907302	-7.325362	0.000000	0.000000	27.921401	1.860156	2.543648	31.277287	-12.715443	102.952595	48.350408	85.570717	-11.593227	-6.195202	13.268951	-10.650819	54.524686	49.526059	86.855020	-17.894927	-8.398140
0.051282	2.518820	-3.199139	89.144686	0.218173	0.814216	0.697699	2.395172	4.240214	2.725717	10.864441	0.189620	35.671305	-7.981936	0.000000	-2.206043	-3.237092	19.302996	0.760163	0.013267	33.720166	-8.840563	0.000000	0.215153	0.728891	-1.021556	0.399561	0.969425	-1.085403	0.353475	1.772225	-1.085403	0.245899	1.772225	-0.893862	0.199791	1.486354	-0.830014	0.122939	1.129052	-0.766167	1.536818	8.245358	-5.681589	0.000000	0.000000	27.956157	1.790762	2.140896	28.471520	-14.301133	96.354268	49.655817	69.460311	-6.816285	-0.461115	12.270162	-9.870245	53.046230	49.719689	86.158352	-15.399986	-7.159385
0.076923	2.711578	-3.147076	88.294703	0.219194	0.813948	0.695518	2.257042	4.455108	3.824443	11.050232	0.192863	35.899472	-8.080561	0.000000	-2.630415	-3.413023	18.630115	0.729302	0.012729	34.084606	-9.119448	0.000000	0.229494	0.750798	-0.792299	0.426194	0.998561	-0.841818	0.377036	1.825490	-0.841818	0.262289	1.825490	-0.693262	0.213109	1.531027	-0.643743	0.131133	1.162986	-0.594224	1.639256	8.493177	-4.406530	0.000000	0.000000	27.985729	1.809937	1.898880	26.289997	-15.561409	91.168928	50.867503	55.753325	-3.117680	4.305205	11.421732	-9.297483	51.882387	49.990076	85.754172	-13.325953	-6.279697
0.102564	2.840425	-3.136730	87.620037	0.220001	0.813723	0.693920	2.179769	4.604006	4.764684	11.181121	0.195147	36.025130	-8.281797	0.000000	-2.921590	-3.528546	18.111417	0.704750	0.012300	34.313011	-9.381188	0.000000	0.242150	0.765458	-0.623359	0.449696	1.018060	-0.662319	0.397827	1.861135	-0.662319	0.276753	1.861135	-0.545439	0.224860	1.560923	-0.506479	0.138364	1.185695	-0.467519	1.729650	8.659018	-3.466934	0.000000	0.000000	28.010705	1.904567	1.798456	24.664427	-16.525920	87.256990	51.970012	44.273390	-0.379386	8.159724	10.707941	-8.907721	50.986715	50.312779	85.595574	-11.637611	-5.717169
0.128205	2.911990	-3.163526	87.111289	0.220604	0.813530	0.692855	2.157729	4.692795	5.553509	11.262583	0.196569	36.062674	-8.571375	0.000000	-3.090706	-3.589328	17.738484	0.686973	0.011990	34.424496	-9.625518	0.000000	0.253360	0.773602	-0.508756	0.470514	1.028890	-0.540553	0.416245	1.880935	-0.540553	0.289565	1.880935	-0.445161	0.235270	1.577529	-0.413364	0.144770	1.198309	-0.381567	1.809723	8.751139	-2.829546	0.000000	0.000000	28.031672	2.061537	1.820482	23.526517	-17.224315	84.478867	52.947888	34.844137	1.516625	11.158407	10.113068	-8.676150	50.312773	50.663356	85.635649	-10.299741	-5.429899
0.153846	2.932901	-3.222888	86.759062	0.221010	0.813362	0.692270	2.185299	4.727366	6.197983	11.300093	0.197224	36.026498	-8.935025	0.000000	-3.148903	-3.601036	17.502897	0.676440	0.011806	34.438174	-9.852173	0.000000	0.263367	0.775958	-0.442511	0.489098	1.032025	-0.470168	0.432685	1.886665	-0.470168	0.301002	1.886665	-0.387197	0.244562	1.582334	-0.359540	0.150488	1.201960	-0.331883	1.881201	8.777797	-2.461113	0.000000	0.000000	28.049219	2.267732	1.945812	22.807974	-17.686242	82.694970	53.785676	27.289198	2.688382	13.357218	9.621391	-8.577961	49.814118	51.017367	85.827488	-9.277127	-5.375979
0.179487	2.909786	-3.310240	86.553959	0.221227	0.813211	0.692112	2.256856	4.713608	6.705174	11.299126	0.197207	35.930995	-9.358480	0.000000	-3.107317	-3.569336	17.396239	0.673618	0.011757	34.373161	-10.060887	0.000000	0.272411	0.773258	-0.418646	0.505895	1.028433	-0.444811	0.447544	1.880100	-0.444811	0.311339	1.880100	-0.366315	0.252961	1.576828	-0.340150	0.155656	1.197777	-0.313984	1.945806	8.747252	-2.328382	0.000000	0.000000	28.063935	2.510039	2.155305	22.440507	-17.941349	81.765714	54.467921	21.432203	3.253910	14.812123	9.217190	-8.588342	49.444310	51.350371	86.124183	-8.534549	-5.513506
0.205128	2.849276	-3.421007	86.486583	0.221263	0.813066	0.692329	2.366777	4.657410	7.082148	11.265157	0.196614	35.790560	-9.827469	0.000000	-2.977089	-3.499897	17.410091	0.678972	0.011850	34.248570	-10.251394	0.000000	0.280735	0.766231	-0.431181	0.521353	1.019087	-0.458130	0.461220	1.863014	-0.458130	0.320852	1.863014	-0.377284	0.260691	1.562499	-0.350335	0.160412	1.186892	-0.323386	2.005262	8.667760	-2.398100	0.000000	0.000000	28.076407	2.775342	2.429816	22.355824	-18.019287	81.551511	54.979169	17.096783	3.331237	15.579087	8.884743	-8.682485	49.156907	51.637927	86.478826	-8.036791	-5.800574
0.230769	2.757998	-3.550612	86.547536	0.221127	0.812920	0.692868	2.509439	4.564661	7.335972	11.203661	0.195541	35.619586	-10.327723	0.000000	-2.769357	-3.398385	17.536035	0.692971	0.012095	34.083516	-10.423429	0.000000	0.288580	0.755607	-0.474138	0.535921	1.004958	-0.503772	0.474107	1.837183	-0.503772	0.329818	1.837183	-0.414871	0.267975	1.540834	-0.385237	0.164894	1.170436	-0.355603	2.061295	8.547580	-2.637013	0.000000	0.000000	28.087223	3.050527	2.750202	22.485631	-17.949702	81.912773	55.303964	14.106571	3.038392	15.714074	8.608331	-8.835578	48.905466	51.855594	86.844509	-7.748635	-6.195279
0.256410	2.642582	-3.694480	86.727420	0.220826	0.812763	0.693677	2.679218	4.441250	7.473713	11.120113	0.194083	35.432467	-10.844975	0.000000	-2.495258	-3.270466	17.765652	0.716082	0.012498	33.897113	-10.576727	0.000000	0.296186	0.742117	-0.541537	0.550047	0.987015	-0.575383	0.486604	1.804382	-0.575383	0.338511	1.804382	-0.473845	0.275038	1.513324	-0.439999	0.169241	1.149538	-0.406153	2.115627	8.394970	-3.011868	0.000000	0.000000	28.096971	3.322480	3.097319	22.761637	-17.762245	82.709915	55.426852	12.285198	2.493401	15.273050	8.372231	-9.022813	48.643546	51.978931	87.174323	-7.634863	-6.655715
0.282051	2.505838	-3.824663	87.009898	0.220409	0.812622	0.694714	2.850510	4.289007	7.517895	11.024359	0.192411	35.270104	-11.329397	0.000000	-2.190765	-3.116783	18.107022	0.746585	0.013030	33.794151	-10.689127	0.000000	0.304118	0.724973	-0.615278	0.564777	0.964213	-0.653733	0.499635	1.762698	-0.653733	0.347576	1.762698	-0.538369	0.282404	1.478364	-0.499914	0.173773	1.122982	-0.461459	2.172284	8.201034	-3.421994	0.000000	0.000000	28.099462	3.523166	3.298047	23.030664	-17.323026	83.901533	55.257483	9.787058	1.718039	13.778465	8.160520	-8.985235	47.787195	51.981636	86.752524	-7.317685	-7.081782
0.307692	2.377122	-3.961174	87.404350	0.219774	0.812464	0.695828	3.034395	4.134127	7.462400	10.904224	0.190315	35.123414	-11.801556	0.000000	-1.845916	-2.965795	18.561335	0.782840	0.013663	33.729734	-10.875095	0.000000	0.312809	0.708790	-0.700929	0.580918	0.942691	-0.744737	0.513914	1.723352	-0.744737	0.357509	1.723352	-0.613313	0.290474	1.445365	-0.569505	0.178739	1.097916	-0.525697	2.234364	8.017975	-3.898358	0.000000	0.000000	28.112101	3.655238	3.390780	23.284359	-17.020658	84.580398	55.147879	9.029966	1.778779	12.026500	7.921013	-8.886315	46.688168	51.951677	86.289920	-7.295693	-7.452995
0.333333	2.238564	-4.119334	87.889046	0.218995	0.812257	0.697005	3.250724	3.959012	7.311710	10.777833	0.188109	35.011276	-12.255540	0.000000	-1.451725	-2.799650	19.091498	0.825947	0.014416	33.683495	-11.087141	0.000000	0.325169	0.690792	-0.791405	0.603872	0.918753	-0.840868	0.534220	1.679591	-0.840868	0.371636	1.679591	-0.692480	0.301952	1.408662	-0.643017	0.185802	1.070036	-0.593554	2.322651	7.814374	-4.401560	0.000000	0.000000	28.132176	3.665869	3.333797	23.384094	-16.765197	84.679960	54.819020	10.054846	2.311349	9.949047	7.558176	-8.812410	45.058691	51.887522	85.954738	-7.280103	-7.693487
0.358974	2.107641	-4.284289	88.457823	0.218066	0.811957	0.698231	3.486389	3.778074	7.027310	10.660424	0.186060	34.958075	-12.632009	0.000000	-1.027284	-2.632788	19.800242	0.878271	0.015329	33.612376	-11.449321	0.000000	0.338734	0.675001	-0.894132	0.629063	0.897752	-0.950015	0.556507	1.641198	-0.950015	0.387139	1.641198	-0.782365	0.314549	1.376463	-0.726482	0.193553	1.045577	-0.670599	2.419545	7.635750	-4.972893	0.000000	0.000000	28.140131	3.645735	3.376041	23.396530	-16.788226	81.337539	54.651291	15.776028	2.640783	7.711342	6.987923	-8.908678	42.380478	51.809059	85.815340	-7.325246	-7.786931
0.384615	1.965540	-4.436991	89.096413	0.217075	0.811604	0.699510	3.713029	3.582499	6.674625	10.550263	0.184137	34.946125	-13.013027	0.000000	-0.603519	-2.451921	20.673739	0.933270	0.016289	33.499368	-11.911541	0.000000	0.352634	0.656027	-0.979785	0.654876	0.872516	-1.041022	0.579342	1.595063	-1.041022	0.403025	1.595063	-0.857312	0.327456	1.337770	-0.796075	0.201495	1.016185	-0.734839	2.518829	7.421105	-5.449271	0.000000	0.000000	28.162809	3.543860	3.325617	23.194794	-16.577970	80.124799	53.495337	17.212284	2.770321	5.572375	6.600137	-9.356701	35.890992	51.950848	89.685462	-8.091178	-7.587583
0.410256	1.845648	-4.595492	89.791684	0.215943	0.811102	0.700787	3.950330	3.399176	6.266265	10.464676	0.182643	34.970952	-13.399825	0.000000	-0.147507	-2.281302	21.429127	1.029059	0.017960	33.450440	-12.083300	0.000000	0.368546	0.641386	-1.062043	0.684427	0.853044	-1.128421	0.605484	1.559467	-1.128421	0.421211	1.559467	-0.929288	0.342232	1.307915	-0.862910	0.210587	0.993508	-0.796532	2.632488	7.255492	-5.906765	0.000000	0.000000	28.187036	3.480576	3.537813	22.831823	-16.233598	81.413694	51.311652	18.137778	2.727974	3.379411	6.325056	-9.620001	33.357105	50.831290	91.164221	-8.860356	-7.430019
0.435897	1.744330	-4.734530	90.535769	0.214663	0.810405	0.702064	4.174194	3.199678	5.555098	10.421167	0.181884	35.107854	-13.444482	0.000000	0.313908	-2.114892	21.859672	1.167170	0.020371	33.550023	-11.648426	0.000000	0.381395	0.630481	-1.138675	0.708288	0.838539	-1.209842	0.626593	1.532951	-1.209842	0.435896	1.532951	-0.996340	0.354163	1.285676	-0.925173	0.217929	0.976615	-0.854006	2.724264	7.132123	-6.332967	0.000000	0.000000	28.212431	3.537330	4.103521	22.296889	-15.868774	84.946125	48.259079	18.981136	2.502148	1.207590	6.149146	-9.780174	34.556642	48.624340	90.467366	-9.541869	-7.140252
